<svg width="159" height="46" viewBox="0 0 159 46" fill="none" xmlns="http://www.w3.org/2000/svg">
    <path d="M12.348 19.5a6.032 6.032 0 1 1 12.064 0 6.033 6.033 0 0 1-12.064 0zm-3.26 0a9.292 9.292 0 0 0 9.291 9.293 9.292 9.292 0 0 0 9.292-9.292 9.292 9.292 0 0 0-9.292-9.292A9.292 9.292 0 0 0 9.087 19.5zm16.78-9.66a2.171 2.171 0 1 0 2.172-2.17h-.001a2.173 2.173 0 0 0-2.172 2.17zm-14.8 24.39c-1.764-.08-2.723-.374-3.36-.622a5.624 5.624 0 0 1-2.082-1.354 5.582 5.582 0 0 1-1.353-2.08c-.249-.637-.542-1.596-.623-3.36-.087-1.908-.105-2.48-.105-7.313s.02-5.404.105-7.313c.08-1.764.377-2.722.623-3.36a5.624 5.624 0 0 1 1.353-2.082 5.577 5.577 0 0 1 2.082-1.354c.637-.248 1.596-.542 3.36-.622 1.908-.088 2.48-.105 7.311-.105 4.83 0 5.404.019 7.313.105 1.764.08 2.722.376 3.36.622.845.328 1.448.721 2.082 1.354.634.633 1.025 1.237 1.354 2.082.248.636.542 1.596.622 3.36.088 1.909.105 2.48.105 7.313 0 4.832-.017 5.404-.105 7.313-.08 1.764-.376 2.723-.622 3.36a5.606 5.606 0 0 1-1.354 2.08 5.623 5.623 0 0 1-2.082 1.354c-.636.248-1.596.542-3.36.622-1.907.088-2.48.106-7.313.106-4.832 0-5.404-.018-7.31-.106zm-.15-32.716c-1.926.088-3.242.394-4.392.841a8.876 8.876 0 0 0-3.205 2.087 8.842 8.842 0 0 0-2.088 3.206c-.447 1.15-.752 2.466-.84 4.392-.09 1.93-.11 2.546-.11 7.46 0 4.915.02 5.532.11 7.461.088 1.927.393 3.242.84 4.393a8.845 8.845 0 0 0 2.088 3.205 8.898 8.898 0 0 0 3.205 2.088c1.152.447 2.466.752 4.393.84 1.93.088 2.546.11 7.46.11s5.531-.02 7.46-.11c1.927-.088 3.243-.393 4.393-.84a8.9 8.9 0 0 0 3.206-2.088 8.863 8.863 0 0 0 2.087-3.205c.447-1.15.754-2.466.84-4.393.088-1.93.109-2.546.109-7.46 0-4.915-.02-5.531-.109-7.46-.087-1.927-.393-3.244-.84-4.393a8.899 8.899 0 0 0-2.087-3.206 8.855 8.855 0 0 0-3.205-2.087c-1.151-.447-2.467-.754-4.392-.84-1.93-.088-2.546-.11-7.46-.11-4.915 0-5.532.02-7.463.11z" fill="url(#2kjs99vlpa)"/>
    <path d="M12.348 19.5a6.032 6.032 0 1 1 12.064 0 6.033 6.033 0 0 1-12.064 0zm-3.26 0a9.292 9.292 0 0 0 9.291 9.293 9.292 9.292 0 0 0 9.292-9.292 9.292 9.292 0 0 0-9.292-9.292A9.292 9.292 0 0 0 9.087 19.5zm16.78-9.66a2.171 2.171 0 1 0 2.172-2.17h-.001a2.173 2.173 0 0 0-2.172 2.17zm-14.8 24.39c-1.764-.08-2.723-.374-3.36-.622a5.624 5.624 0 0 1-2.082-1.354 5.582 5.582 0 0 1-1.353-2.08c-.249-.637-.542-1.596-.623-3.36-.087-1.908-.105-2.48-.105-7.313s.02-5.404.105-7.313c.08-1.764.377-2.722.623-3.36a5.624 5.624 0 0 1 1.353-2.082 5.577 5.577 0 0 1 2.082-1.354c.637-.248 1.596-.542 3.36-.622 1.908-.088 2.48-.105 7.311-.105 4.83 0 5.404.019 7.313.105 1.764.08 2.722.376 3.36.622.845.328 1.448.721 2.082 1.354.634.633 1.025 1.237 1.354 2.082.248.636.542 1.596.622 3.36.088 1.909.105 2.48.105 7.313 0 4.832-.017 5.404-.105 7.313-.08 1.764-.376 2.723-.622 3.36a5.606 5.606 0 0 1-1.354 2.08 5.623 5.623 0 0 1-2.082 1.354c-.636.248-1.596.542-3.36.622-1.907.088-2.48.106-7.313.106-4.832 0-5.404-.018-7.31-.106zm-.15-32.716c-1.926.088-3.242.394-4.392.841a8.876 8.876 0 0 0-3.205 2.087 8.842 8.842 0 0 0-2.088 3.206c-.447 1.15-.752 2.466-.84 4.392-.09 1.93-.11 2.546-.11 7.46 0 4.915.02 5.532.11 7.461.088 1.927.393 3.242.84 4.393a8.845 8.845 0 0 0 2.088 3.205 8.898 8.898 0 0 0 3.205 2.088c1.152.447 2.466.752 4.393.84 1.93.088 2.546.11 7.46.11s5.531-.02 7.46-.11c1.927-.088 3.243-.393 4.393-.84a8.9 8.9 0 0 0 3.206-2.088 8.863 8.863 0 0 0 2.087-3.205c.447-1.15.754-2.466.84-4.393.088-1.93.109-2.546.109-7.46 0-4.915-.02-5.531-.109-7.46-.087-1.927-.393-3.244-.84-4.393a8.899 8.899 0 0 0-2.087-3.206 8.855 8.855 0 0 0-3.205-2.087c-1.151-.447-2.467-.754-4.392-.84-1.93-.088-2.546-.11-7.46-.11-4.915 0-5.532.02-7.463.11zM55.982 7.115c-.752.288-1.99 1.835-2.72 3.36-.995 2.123-1.437 4.002-1.437 6.17 0 1.569.089 2.077.597 3.205.332.707.863 1.592 1.194 1.945.752.796 2.145 1.437 3.095 1.46.597 0 .708.088.708.552 0 .31-.2 1.04-.42 1.658-.973 2.543-2.94 3.98-5.527 3.98-1.835 0-3.162-.597-3.648-1.636-.597-1.26-.465-2.034.552-3.272.686-.796.951-1.327 1.04-2.056.088-.885.044-1.017-.42-1.172-1.26-.464-2.83.707-3.317 2.432-.133.53-.199 1.525-.133 2.233.332 3.626 3.051 5.483 7.562 5.173 2.476-.177 3.758-.663 5.107-2.034 1.415-1.393 2.012-2.962 2.299-5.836.243-2.432.287-11.74.088-14.238-.154-1.68-.154-1.703-.84-1.791-1.57-.243-3.36-.31-3.78-.133zm1.37 3.14c.133.177.177 2.343.111 5.416-.088 4.776-.133 5.152-.508 5.262-.73.243-1.614-.376-2.19-1.547-.508-.995-.552-1.371-.552-3.759 0-2.874.243-3.913 1.15-4.974.575-.708 1.592-.907 1.99-.398zm26.73-2.543c-.067.177-.133.84-.133 1.46 0 .64-.066 1.812-.155 2.63l-.132 1.504h-1.017c-.995 0-2.61.31-2.83.508-.044.066 0 .31.132.553.221.398.686.575 3.073 1.061l.487.088-.044 5.262c-.067 4.599-.022 5.417.353 6.61.708 2.344 2.322 3.76 3.958 3.45.818-.155 1.901-1.327 2.63-2.83.332-.73.62-1.128.62-.884 0 .73 1.039 2.697 1.592 3.073.287.199 1.06.442 1.702.574 1.901.354 3.007-.442 4.134-3.006l.354-.863.199.642c.243.884 1.437 2.056 2.233 2.21.862.177 2.012-.331 2.609-1.15l.508-.685.464.929c.62 1.194 1.283 1.658 2.875 1.946 1.171.198 1.37.198 1.879-.2.309-.22.84-.906 1.172-1.503l.619-1.083v2.63l-1.636 1.615c-1.813 1.768-3.14 4.09-3.781 6.588-1.083 4.267.287 6.146 4.51 6.168 1.813.022 1.835.022 2.454-.707 1.039-1.238 1.194-2.167 1.327-7.782l.11-5.196h.708c.398 0 .84-.133.995-.287.243-.243.199-.376-.244-.73-.287-.22-.773-.42-1.083-.42h-.553l.111-3.604c.088-2.763.199-3.758.486-4.31l.376-.73-.729-.288-.73-.31v-1.989c0-1.901-.044-2.034-.619-2.653-.332-.354-1.039-.752-1.548-.906-.508-.133-1.392-.465-1.967-.73-1.216-.553-1.857-.442-2.919.486-1.503 1.327-2.255 3.936-2.542 8.733-.177 3.073-.509 4.157-1.349 4.422-.619.199-1.039-.2-1.326-1.194-.288-1.083-.288-3.582.044-4.82.243-.972.221-1.039-.31-1.48-.508-.421-.574-.664-.663-2.3-.132-2.322-.464-2.786-2.52-3.626-4.112-1.68-6.168.177-6.942 6.323-.11.95-.31 1.857-.42 1.99-.11.132-.376.928-.553 1.746-.442 1.858-1.061 3.14-1.813 3.604-.53.354-.575.354-.995-.066-.663-.663-.862-2.742-.73-7.362.155-5.793.067-5.461 1.548-5.66.686-.066 1.88-.155 2.653-.155 1.526-.022 1.747-.221.973-.928-.354-.31-.95-.443-2.609-.531l-2.144-.133.044-1.547c.022-.863.11-2.034.177-2.61.132-1.038.11-1.06-.597-1.348-1.238-.486-2.344-.597-2.476-.199zm26.552 9.22c.575.508.619.64.597 2.166-.044 2.985-.619 6.345-1.349 7.804-.508 1.017-1.415 1.88-1.989 1.88-.288 0-.664-.244-.885-.597-.597-.885-.575-6.721.022-8.468.575-1.724 1.194-2.653 1.99-3.007.907-.398.907-.398 1.614.221zm-12.8.464c.596.774.817 2.387.397 3.029-.177.287-.42 1.57-.553 2.874-.331 2.962-.773 4.51-1.57 5.306-.928.906-1.702.84-2.144-.221-.862-2.012-.508-7.827.62-10.015.795-1.57 2.41-2.056 3.25-.973zm13.309 22.285c-.398 2.565-1.349 3.891-2.565 3.604-1.15-.288-1.503-2.366-.862-4.886.486-1.835 1.658-4.245 2.675-5.417l.862-.972.066 3.073c.022 1.702-.044 3.78-.176 4.598z" fill="#1E1E1E"/>
    <path d="M127.834 14.942c-1.127 1.171-1.791 2.94-2.122 5.77-.31 2.653-1.194 6.146-1.813 7.274-.376.685-.619.906-1.039.906-.885 0-1.172-1.216-1.039-4.532.088-2.012.243-3.206.619-4.4l.508-1.636-.486-.398c-.31-.243-1.061-.442-1.99-.53a56.659 56.659 0 0 1-1.813-.177c-.221-.044-.332-.332-.332-.929-.022-1.26-.243-1.503-1.149-1.37-1.349.22-1.349.265-1.238 3.98.088 2.166.022 3.957-.155 5.018-.398 2.343-.376 2.52.066 2.609.597.132 1.172-1.46 1.636-4.599l.42-2.764h1.305l-.089 2.874c-.132 5.638 1.039 8.512 3.471 8.512 1.017 0 1.902-.685 2.543-1.99l.553-1.083.353.95c.199.51.642 1.195.973 1.504.73.686 2.786 1.194 3.626.863.73-.266 1.68-1.438 2.277-2.742l.464-1.083.42.928c1.062 2.366 3.494 2.543 4.931.376l.597-.906.132 1.15c.199 1.459.442 1.746 1.658 1.945 1.924.287 1.924.265 2.366-3.051.376-2.985.951-5.483 1.282-5.483.089 0 .199 1.481.243 3.294.067 2.852.133 3.36.487 3.759.862.95 3.007.795 3.007-.222 0-.773.884-3.979 1.614-5.836l.707-1.769.111 3.095c.088 2.742.176 3.228.663 4.179.309.619.818 1.304 1.149 1.547.818.597 2.388.597 3.184 0 1.702-1.26 3.471-6.72 2.189-6.72-.398 0-.663.53-.885 1.658-.508 2.83-2.21 4.444-2.984 2.807-.464-.95-.531-4.753-.111-6.566.664-2.874.686-2.653-.199-3.316a3.58 3.58 0 0 0-1.879-.73l-1.039-.088-.575 1.282c-.331.73-1.061 2.653-1.658 4.29l-1.061 2.984-.066-3.36-.067-3.383-.641-.332c-1.769-.906-2.697-.088-3.736 3.339a323.536 323.536 0 0 1-.796 2.63c-.044.111-.089-1.68-.089-4.023-.022-2.631-.11-4.29-.243-4.378-.132-.088-.774-.199-1.415-.265l-1.194-.133-.088 4.179c-.089 3.515-.177 4.4-.575 5.637-.862 2.587-1.968 3.383-2.609 1.858-.376-.907-.42-4.245-.066-5.527.221-.796.199-.907-.31-1.327-.464-.376-.552-.707-.685-2.189-.177-1.968-.508-2.808-1.282-3.14-2.322-1.083-2.72-1.193-3.869-1.193-1.194 0-1.305.044-2.167.973zm4.311 2.122c.73.398 1.216 2.896.664 3.45-.111.11-.332 1.26-.443 2.52-.309 3.006-.796 4.709-1.569 5.549-.818.862-1.725.818-2.167-.11-.752-1.593-.707-6.08.088-8.844.664-2.233 2.057-3.295 3.427-2.565zm-68.846-1.37c-.176.309-.64 10.788-.53 12.026.154 1.46.64 1.946 1.923 1.946.553 0 1.128-.088 1.26-.177.155-.088.42-.995.62-2.034.42-2.056 1.083-4.223 1.57-5.085.287-.508.309-.31.33 2.1 0 2.94.31 3.958 1.327 4.489.73.375 2.123.198 2.919-.398.663-.487.663-.487.972-.045.708 1.017 3.759 1.614 5.903 1.15 1.614-.332 2.587-1.105 2.587-2.078 0-.95-.332-1.37-2.63-3.228-2.3-1.857-2.676-2.344-2.676-3.427 0-1.592 1.968-2.542 3.117-1.525.53.486.995.375 1.636-.376.465-.553.553-.885.509-1.614-.066-.752-.177-.95-.73-1.216-1.238-.597-5.284.486-6.72 1.813-1.15 1.061-1.416 2.697-.686 4.112.332.685.376.884.132.973-.154.066-.353.552-.442 1.061-.353 2.233-1.525 3.758-2.321 2.985-.287-.31-.354-.973-.398-3.98-.022-2.764-.11-3.78-.376-4.289-.376-.73-1.238-1.061-1.901-.707-.553.287-1.437 1.813-2.233 3.824l-.62 1.592-.021-3.581c0-3.471-.022-3.604-.487-3.914-.685-.42-1.879-.64-2.034-.398zm14.791 10.5c.53.465.995 1.018 1.061 1.261.332 1.238-1.481 1.592-2.896.553-.464-.332-1.083-.774-1.437-.973-.376-.221-.553-.464-.464-.685.066-.177.243-.885.376-1.57l.243-1.26 1.105.928a57.425 57.425 0 0 1 2.012 1.747z" fill="#1E1E1E"/>
    <defs>
        <radialGradient id="2kjs99vlpa" cx="0" cy="0" r="1" gradientUnits="userSpaceOnUse" gradientTransform="translate(5.091 37.768) scale(47.2454)">
            <stop offset=".09" stop-color="#FA8F21"/>
            <stop offset=".78" stop-color="#D82D7E"/>
        </radialGradient>
    </defs>
</svg>
