<svg width="115" height="39" viewBox="0 0 115 39" fill="none" xmlns="http://www.w3.org/2000/svg">
    <g clip-path="url(#tmidxmsw4a)">
        <path d="m1.936 1.847 9.5.39 5.858 5.337 29.414.13-.13-5.987 19.783.13-.13 5.597 6.117.26.13 4.425 5.206-4.425 12.365-.13V2.108l10.542-.26.13 5.596 7.419.13 5.726 5.206.13 18.482-106.984.26-5.597-5.857.52-23.818z" fill="#fff"/>
        <path d="m11.221 35.565-4.886-2.93-2.965-2.961-2.966-2.962V.505h12.462l2.954 2.953 2.954 2.952h13.361c13.157 0 13.363-.002 13.416-.101.035-.066.054-1.087.054-2.952V.505h22.26l.014 2.94.013 2.939 2.926.026 2.927.026.013 1.555c.008.855.031 1.554.052 1.554.02 0 .744-.705 1.608-1.567l1.57-1.568h6.579l2.954-2.952L89.475.505h12.409v2.852c0 1.865.019 2.886.054 2.952.053.098.148.101 3.619.101h3.565l2.939 2.94L115 12.29v19.653l-4.899 3.277-4.899 3.277-3.276-.001-3.277-.001-.016-1.564c-.008-.86-.032-1.58-.052-1.6-.02-.02-1.046.683-2.279 1.563l-2.242 1.6h-5.919v-1.567c0-1.223-.015-1.568-.066-1.568-.036 0-.77.706-1.632 1.568l-1.567 1.568H74.37l-1.592-1.593c-.876-.876-1.61-1.574-1.633-1.552-.022.023-.17.686-.327 1.475-.157.79-.299 1.487-.314 1.552l-.028.118h-9.17l-1.567-1.568c-.862-.862-1.596-1.568-1.633-1.568-.05 0-.065.345-.065 1.568v1.568h-4.599c-2.529 0-4.598-.007-4.598-.016 0-.082-.633-3.143-.655-3.165-.015-.015-.75.694-1.633 1.576l-1.606 1.605h-17.06l-1.568-.627c-.863-.345-1.592-.627-1.62-.627-.032 0-.052.246-.052.627v.627h-8.544l-4.886-2.93zm4.886-9.193v-3.58l-2.926-.026-2.927-.026v-6.48l2.927-.026 2.926-.026v-7.16l-2.926-.025-2.927-.026-.026-2.927-.026-2.926H3.043L3.03 14.273l-.013 11.129 2.286 2.288 2.285 2.288 4.26-.014 4.259-.013v-3.58zm27.213 1.317 2.285-2.287-.013-8.177-.013-8.176-3.592-.013-3.593-.014-.013 6.859-.013 6.859h-2.56l-.027-6.846-.026-6.845-3.592-.013-3.593-.014-.013 6.859-.013 6.859h-2.56l-.027-6.846-.026-6.845-3.593-.013-3.592-.014v20.955h22.288l2.286-2.288zM55.403 19.5V9.049l-3.593-.013-3.592-.014v20.956l3.592-.014 3.593-.013V19.5zm15.703 6.872v-3.605l-2.913-.014-2.914-.013v-6.48l2.913-.013 2.914-.014v-7.21l-2.913-.013-2.914-.013-.026-2.927-.026-2.926h-7.159l-.013 11.13-.013 11.13 2.286 2.287 2.286 2.286h8.492v-3.605zm18.341 0v-3.606H85.22c-3.806 0-4.23-.008-4.258-.083-.042-.108-.042-6.258 0-6.366.028-.075.452-.083 4.258-.083h4.227V9.023H78.292l-2.26 2.26-2.261 2.261v11.912l2.26 2.26 2.261 2.261h11.155v-3.605zm9.837-3.253.013-6.859h5.853l.026 6.845.026 6.846h7.159l.014-8.176.013-8.177-2.286-2.288-2.285-2.287h-4.214c-3.462 0-4.225-.013-4.272-.07-.041-.05-.063-.927-.072-2.94l-.014-2.869h-7.159l-.013 13.351c-.007 7.343-.002 13.38.011 13.417.02.051.79.065 3.606.065h3.581l.013-6.858zM55.403 4.764v-1.62h-7.159l-.014 1.567c-.007.862-.002 1.597.012 1.633.02.053.75.064 3.593.053l3.568-.013v-1.62z" fill="#1E1E1E"/>
    </g>
    <defs>
        <clipPath id="tmidxmsw4a">
            <path fill="#fff" transform="translate(.404 .501)" d="M0 0h114.596v38H0z"/>
        </clipPath>
    </defs>
</svg>
