<svg width="141" height="27" viewBox="0 0 141 27" fill="none" xmlns="http://www.w3.org/2000/svg">
    <path d="M8.755 24.438a8.632 8.632 0 0 1-8.632-8.632l.028-9.903a2.471 2.471 0 1 1 4.942 0v3.706h6.179a2.471 2.471 0 0 1 0 4.943H5.093v1.245a3.697 3.697 0 0 0 3.698 3.697h3.716a2.471 2.471 0 0 1 0 4.943H8.755zM57.563 24.438c-4.766 0-8.603-3.865-8.603-8.632V5.902a2.47 2.47 0 1 1 4.942 0V9.61h3.706a2.472 2.472 0 1 1 0 4.943h-3.706v1.245a3.697 3.697 0 0 0 3.696 3.697h1.247a2.471 2.471 0 0 1 0 4.943h-1.282zM70.538 24.438c-4.768 0-8.604-3.865-8.604-8.633V5.902a2.472 2.472 0 0 1 4.942 0V9.61h3.706a2.472 2.472 0 1 1 0 4.942h-3.706v1.246a3.697 3.697 0 0 0 3.697 3.697h1.247a2.471 2.471 0 0 1 0 4.943h-1.282zM91.605 17.024c0-4.095 3.28-7.414 7.375-7.414h3.706a2.47 2.47 0 0 1 2.439 2.471 2.47 2.47 0 0 1-2.439 2.471H98.98a2.472 2.472 0 0 0-2.473 2.472l.04 4.942a2.47 2.47 0 0 1-4.942 0v-4.942zM37.839 9.61a2.47 2.47 0 0 0-2.471 2.471v4.943a2.471 2.471 0 0 1-4.943 0v-4.943a2.472 2.472 0 1 0-4.942 0v4.943a2.471 2.471 0 0 1-4.942 0v-4.943a2.472 2.472 0 1 0-4.942 0v4.943a7.414 7.414 0 0 0 7.414 7.414c1.902 0 3.63-.722 4.943-1.899a7.379 7.379 0 0 0 4.943 1.899 7.413 7.413 0 0 0 7.413-7.414v-4.943A2.475 2.475 0 0 0 37.84 9.61zM44.635 9.61a2.47 2.47 0 0 0-2.47 2.471v9.885a2.47 2.47 0 1 0 4.941 0v-9.885a2.47 2.47 0 0 0-2.471-2.471zM44.635 8.374a2.471 2.471 0 1 0 0-4.943 2.471 2.471 0 0 0 0 4.943z" fill="#1E1E1E"/>
    <path d="M120.517 9.92c1.212-3.784 2.695-6.237 4.401-8.015 1.272-1.327 1.929-1.749 1.181-.287.33-.265.805-.617 1.173-.805 2.064-.973 1.917-.157.496.718 3.881-1.388 3.746.38-.357 1.26 3.354.063 6.923 2.199 7.949 6.74.142.628-.027.569.616.682 1.39.247 2.696.232 3.97-.173-.137.94-1.378 1.55-3.314 1.953-.718.15-.865.11-.005.304 1.059.238 2.243.3 3.496.241-.975 1.123-2.532 1.697-4.454 1.72-1.203 4.393-3.952 7.539-7.429 9.513-8.169 4.636-20.06 3.964-26.022-4.462 3.913 3.07 9.709 3.747 14.013-.533-2.82 0-3.551-2.111-1.314-3.251-2.118-.022-3.463-.692-4.252-1.905-.301-.46-.303-.495.186-.848.537-.39 1.269-.562 2.028-.62-2.192-.627-3.531-1.772-3.996-3.307-.153-.509-.177-.483.339-.614.506-.128 1.156-.196 1.739-.225-1.721-1.044-2.75-2.323-3.012-3.738-.247-1.335.009-.992 1.007-.61 4.468 1.708 8.924 3.544 11.561 6.263zM89.736 15.788c0 .864-.363 2.464-1.652 2.464h-8.158a2.472 2.472 0 0 0 2.395 1.86h5.266a2.165 2.165 0 0 1 2.163 2.164 2.16 2.16 0 0 1-2.163 2.162h-5.266c-4.094 0-7.414-3.344-7.414-8.032 0-4.113 3.321-6.796 7.417-6.796 4.094 0 7.415 2.766 7.415 6.179l-.003-.001zm-4.941-.618c0-1.137-1.105-2.06-2.47-2.06-1.366 0-2.472.923-2.472 2.06h4.942z" fill="#1E1E1E"/>
</svg>
