<svg width="15" height="14" viewBox="0 0 15 14" fill="none" xmlns="http://www.w3.org/2000/svg">
<path d="M1.34063 13.331C1.25175 13.2377 1.19697 13.1172 1.18499 12.989C1.17302 12.8607 1.20463 12.7321 1.27471 12.624L1.29669 12.594L12.1177 1.461C12.1308 1.448 12.1419 1.43324 12.1507 1.41705C12.1647 1.40354 12.1771 1.3884 12.1877 1.37201L12.8757 0.66504C12.9271 0.612696 12.9884 0.57112 13.0561 0.542786C13.1237 0.514453 13.1964 0.499894 13.2697 0.500001C13.3416 0.500177 13.4127 0.514798 13.4788 0.542969C13.5449 0.57114 13.6048 0.612289 13.6547 0.664002C13.7607 0.77013 13.8202 0.914023 13.8202 1.06403C13.8202 1.21403 13.7607 1.35792 13.6547 1.46405L12.3237 2.83405C13.4707 3.94803 14.3685 5.29262 14.9577 6.77905C15.0145 6.92161 15.0145 7.08047 14.9577 7.22302C13.3887 10.978 10.6026 13.215 7.50164 13.215H7.49371C6.06561 13.1996 4.67943 12.7303 3.5357 11.875L2.11566 13.335C2.06536 13.3871 2.00507 13.4286 1.93841 13.457C1.87175 13.4853 1.80015 13.4999 1.72772 13.5C1.65497 13.5005 1.58284 13.4858 1.51617 13.4567C1.4495 13.4276 1.38969 13.3847 1.34063 13.331ZM5.85174 9.48401C6.16715 9.70462 6.52348 9.85988 6.89984 9.94055C7.27619 10.0212 7.66491 10.0257 8.04303 9.95374C8.42114 9.88178 8.78107 9.73487 9.1015 9.52161C9.42192 9.30835 9.69628 9.03307 9.90863 8.71204C10.2483 8.20549 10.4266 7.6079 10.4197 6.99805C10.4212 6.39679 10.2475 5.80811 9.91973 5.30402L9.11969 6.12805C9.25533 6.39795 9.32551 6.69598 9.32464 6.99805C9.33159 7.48829 9.14383 7.96127 8.80242 8.31317C8.46102 8.66507 7.99395 8.8671 7.50372 8.875C7.20764 8.87682 6.9158 8.80468 6.65472 8.66504L5.85174 9.48401ZM0.0516917 7.22205C-0.0068139 7.08017 -0.0068139 6.92092 0.0516917 6.77905C1.61769 3.02905 4.40469 0.794007 7.49969 0.794007H7.50567C8.55029 0.79662 9.57906 1.04973 10.5057 1.53204L8.06365 4.047C7.87981 4.01367 7.69348 3.99596 7.50665 3.99402C6.71937 4.0056 5.969 4.32944 5.42047 4.89429C4.87193 5.45914 4.57023 6.21876 4.58172 7.00604C4.5833 7.19777 4.60026 7.38902 4.63262 7.578L1.92474 10.364C1.14365 9.41754 0.510409 8.35822 0.0466868 7.22205H0.0516917Z" fill="#D9D9D9"/>
</svg>
