<svg class="{{ class }}" width="120" height="26" viewBox="0 0 120 26" fill="none" xmlns="http://www.w3.org/2000/svg">
    <g clip-path="url(#hnbl9udk4a)">
        <path d="M-.098 25.162V1h16.12v3.892H4.312v6.681h10.249v3.892H4.313v9.697h-4.41z" fill="#000"/>
        <path d="M-.098 25.162V1h16.12v3.892H4.312v6.681h10.249v3.892H4.313v9.697h-4.41z" fill="#1E1E1E"/>
        <path d="M22.108 25.552c-1.233 0-2.303-.206-3.211-.617-.908-.41-1.61-1-2.108-1.767-.497-.768-.746-1.66-.746-2.676 0-.973.216-1.843.649-2.61.432-.768 1.102-1.412 2.01-1.93.908-.52 2.054-.887 3.438-1.103l5.773-.94v3.242l-4.962.844c-.843.151-1.47.421-1.881.81-.41.39-.616.898-.616 1.525 0 .605.232 1.086.697 1.443.465.357 1.043.535 1.735.535.887 0 1.67-.189 2.352-.567a4.043 4.043 0 0 0 1.589-1.573 4.41 4.41 0 0 0 .567-2.206v-4.54c0-.757-.297-1.39-.892-1.898-.594-.508-1.378-.762-2.35-.762-.909 0-1.714.244-2.417.73a4.229 4.229 0 0 0-1.54 1.93l-3.471-1.687a6.124 6.124 0 0 1 1.638-2.416 8.249 8.249 0 0 1 2.643-1.605c1.016-.39 2.119-.584 3.308-.584 1.449 0 2.725.265 3.827.794 1.103.53 1.962 1.265 2.579 2.206.616.94.924 2.038.924 3.292v11.74h-4.022v-3.016l.909-.065a7.136 7.136 0 0 1-1.622 1.898 6.85 6.85 0 0 1-2.14 1.167c-.8.27-1.687.405-2.66.405z" fill="#000"/>
        <path d="M22.108 25.552c-1.233 0-2.303-.206-3.211-.617-.908-.41-1.61-1-2.108-1.767-.497-.768-.746-1.66-.746-2.676 0-.973.216-1.843.649-2.61.432-.768 1.102-1.412 2.01-1.93.908-.52 2.054-.887 3.438-1.103l5.773-.94v3.242l-4.962.844c-.843.151-1.47.421-1.881.81-.41.39-.616.898-.616 1.525 0 .605.232 1.086.697 1.443.465.357 1.043.535 1.735.535.887 0 1.67-.189 2.352-.567a4.043 4.043 0 0 0 1.589-1.573 4.41 4.41 0 0 0 .567-2.206v-4.54c0-.757-.297-1.39-.892-1.898-.594-.508-1.378-.762-2.35-.762-.909 0-1.714.244-2.417.73a4.229 4.229 0 0 0-1.54 1.93l-3.471-1.687a6.124 6.124 0 0 1 1.638-2.416 8.249 8.249 0 0 1 2.643-1.605c1.016-.39 2.119-.584 3.308-.584 1.449 0 2.725.265 3.827.794 1.103.53 1.962 1.265 2.579 2.206.616.94.924 2.038.924 3.292v11.74h-4.022v-3.016l.909-.065a7.136 7.136 0 0 1-1.622 1.898 6.85 6.85 0 0 1-2.14 1.167c-.8.27-1.687.405-2.66.405z" fill="#1E1E1E"/>
        <path d="M34.486 25.162V7.52h3.99v3.47l-.325-.616c.411-1.06 1.087-1.865 2.027-2.416.94-.551 2.038-.827 3.292-.827 1.297 0 2.449.281 3.454.843a5.997 5.997 0 0 1 2.352 2.352c.562 1.005.843 2.167.843 3.486v11.351H45.87V14.816c0-.778-.151-1.448-.454-2.01-.303-.563-.719-1-1.249-1.314-.53-.314-1.15-.47-1.864-.47-.692 0-1.309.156-1.85.47a3.29 3.29 0 0 0-1.264 1.314c-.303.562-.454 1.232-.454 2.01v10.346h-4.249z" fill="#000"/>
        <path d="M34.486 25.162V7.52h3.99v3.47l-.325-.616c.411-1.06 1.087-1.865 2.027-2.416.94-.551 2.038-.827 3.292-.827 1.297 0 2.449.281 3.454.843a5.997 5.997 0 0 1 2.352 2.352c.562 1.005.843 2.167.843 3.486v11.351H45.87V14.816c0-.778-.151-1.448-.454-2.01-.303-.563-.719-1-1.249-1.314-.53-.314-1.15-.47-1.864-.47-.692 0-1.309.156-1.85.47a3.29 3.29 0 0 0-1.264 1.314c-.303.562-.454 1.232-.454 2.01v10.346h-4.249z" fill="#1E1E1E"/>
        <path d="M64.442 25.551c-1.73 0-3.33-.313-4.8-.94a11.874 11.874 0 0 1-3.859-2.627 12.105 12.105 0 0 1-2.578-3.957c-.617-1.514-.925-3.168-.925-4.962 0-1.795.298-3.454.892-4.978.595-1.525 1.438-2.844 2.53-3.957a11.606 11.606 0 0 1 3.843-2.595c1.47-.616 3.07-.924 4.8-.924s3.281.292 4.654.876c1.373.583 2.535 1.356 3.487 2.318.951.963 1.632 2.017 2.043 3.163l-3.924 1.88A6.33 6.33 0 0 0 68.302 5.8c-1.081-.778-2.4-1.168-3.957-1.168-1.513 0-2.849.357-4.005 1.07-1.157.714-2.054 1.698-2.692 2.952-.638 1.254-.957 2.724-.957 4.41 0 1.687.33 3.163.99 4.428.659 1.265 1.572 2.254 2.74 2.967 1.167.714 2.508 1.07 4.021 1.07 1.233 0 2.368-.242 3.406-.729 1.038-.486 1.87-1.178 2.497-2.076.627-.897.94-1.962.94-3.194V13.68l2.011 1.752h-8.95v-3.73h11.35v2.432c0 1.86-.313 3.503-.94 4.93-.627 1.427-1.476 2.621-2.546 3.584a10.95 10.95 0 0 1-3.616 2.173c-1.34.486-2.724.73-4.152.73z" fill="#000"/>
        <path d="M64.442 25.551c-1.73 0-3.33-.313-4.8-.94a11.874 11.874 0 0 1-3.859-2.627 12.105 12.105 0 0 1-2.578-3.957c-.617-1.514-.925-3.168-.925-4.962 0-1.795.298-3.454.892-4.978.595-1.525 1.438-2.844 2.53-3.957a11.606 11.606 0 0 1 3.843-2.595c1.47-.616 3.07-.924 4.8-.924s3.281.292 4.654.876c1.373.583 2.535 1.356 3.487 2.318.951.963 1.632 2.017 2.043 3.163l-3.924 1.88A6.33 6.33 0 0 0 68.302 5.8c-1.081-.778-2.4-1.168-3.957-1.168-1.513 0-2.849.357-4.005 1.07-1.157.714-2.054 1.698-2.692 2.952-.638 1.254-.957 2.724-.957 4.41 0 1.687.33 3.163.99 4.428.659 1.265 1.572 2.254 2.74 2.967 1.167.714 2.508 1.07 4.021 1.07 1.233 0 2.368-.242 3.406-.729 1.038-.486 1.87-1.178 2.497-2.076.627-.897.94-1.962.94-3.194V13.68l2.011 1.752h-8.95v-3.73h11.35v2.432c0 1.86-.313 3.503-.94 4.93-.627 1.427-1.476 2.621-2.546 3.584a10.95 10.95 0 0 1-3.616 2.173c-1.34.486-2.724.73-4.152.73z" fill="#1E1E1E"/>
        <path d="M77.762 25.162V7.52h4.248v17.643h-4.248zm0-19.621V1h4.248v4.54h-4.248z" fill="#000"/>
        <path d="M77.762 25.162V7.52h4.248v17.643h-4.248zm0-19.621V1h4.248v4.54h-4.248z" fill="#1E1E1E"/>
        <path d="M86.897 25.162V11.314h-3.114V7.518h3.114v-.584c0-1.34.275-2.48.827-3.421a5.454 5.454 0 0 1 2.319-2.157C91.037.859 92.216.61 93.578.61c.26 0 .546.016.86.048.313.033.578.07.794.114v3.665a4.394 4.394 0 0 0-.6-.081 8.616 8.616 0 0 0-.503-.016c-.951 0-1.686.21-2.205.632-.52.422-.779 1.076-.779 1.962v.584h3.925v3.794h-3.925v13.85h-4.248z" fill="#000"/>
        <path d="M86.897 25.162V11.314h-3.114V7.518h3.114v-.584c0-1.34.275-2.48.827-3.421a5.454 5.454 0 0 1 2.319-2.157C91.037.859 92.216.61 93.578.61c.26 0 .546.016.86.048.313.033.578.07.794.114v3.665a4.394 4.394 0 0 0-.6-.081 8.616 8.616 0 0 0-.503-.016c-.951 0-1.686.21-2.205.632-.52.422-.779 1.076-.779 1.962v.584h3.925v3.794h-3.925v13.85h-4.248z" fill="#1E1E1E"/>
        <path d="M105.794 25.357c-1.989 0-3.529-.546-4.621-1.638-1.092-1.092-1.638-2.632-1.638-4.621v-7.784h-3.049V7.519h.325c.864 0 1.535-.227 2.01-.68.476-.455.714-1.114.714-1.98V3.499h4.249v4.021h4.054v3.795h-4.054v7.556c0 .584.102 1.082.308 1.492.205.411.529.725.973.941.443.216 1.011.324 1.702.324.152 0 .33-.01.536-.032l.6-.065v3.632c-.303.044-.649.087-1.038.13a9.762 9.762 0 0 1-1.071.065z" fill="#000"/>
        <path d="M105.794 25.357c-1.989 0-3.529-.546-4.621-1.638-1.092-1.092-1.638-2.632-1.638-4.621v-7.784h-3.049V7.519h.325c.864 0 1.535-.227 2.01-.68.476-.455.714-1.114.714-1.98V3.499h4.249v4.021h4.054v3.795h-4.054v7.556c0 .584.102 1.082.308 1.492.205.411.529.725.973.941.443.216 1.011.324 1.702.324.152 0 .33-.01.536-.032l.6-.065v3.632c-.303.044-.649.087-1.038.13a9.762 9.762 0 0 1-1.071.065z" fill="#1E1E1E"/>
        <path d="M119.259 15.938h-2.254l-.061.002v-.002h-1.73v2.826h4.819v-1.938c0-.49-.347-.888-.774-.888z" fill="#D853F9"/>
        <path d="M111.051 14.172c0 .632.481 1.17 1.066 1.208h2.539c-.284-.776-1.042-2.368-2.477-2.38-.62 0-1.128.526-1.128 1.172zM115.342 15.38h2.54c.585-.038 1.066-.576 1.066-1.208 0-.646-.507-1.172-1.132-1.172-1.436.012-2.191 1.604-2.474 2.38z" fill="#F5E700"/>
        <path d="M114.647 15.938h-1.851v.002c-.02 0-.041 0-.061-.002h-2.133c-.427 0-.774.398-.774.888v1.938h4.819v-2.826zM120.057 24.217v-4.894h-4.843v5.782h3.943c.497 0 .9-.398.9-.888zM114.647 19.323h-4.843v4.894c0 .49.403.888.9.888h3.943v-5.782z" fill="#D853F9"/>
    </g>
    <defs>
        <clipPath id="hnbl9udk4a">
            <path fill="#fff" transform="translate(0 .433)" d="M0 0h120v25.135H0z"/>
        </clipPath>
    </defs>
</svg>
