<svg width="64" height="65" viewBox="0 0 64 65" fill="none" xmlns="http://www.w3.org/2000/svg">
    <path d="m27.973 6.447-13.307 4.986c-3.067 1.147-5.573 4.774-5.573 8.054V39.3c0 3.147 2.08 7.28 4.613 9.173l11.467 8.56c3.76 2.827 9.946 2.827 13.706 0l11.467-8.56c2.533-1.893 4.613-6.026 4.613-9.173V19.487c0-3.28-2.506-6.907-5.573-8.054L36.08 6.447c-2.266-.827-5.893-.827-8.106 0z" stroke="#D853F9" stroke-width="4" stroke-linecap="round" stroke-linejoin="round"/>
    <path d="M32 41.833c5.892 0 10.667-4.775 10.667-10.666S37.892 20.5 32.001 20.5s-10.667 4.776-10.667 10.667c0 5.89 4.776 10.666 10.667 10.666z" stroke="#D853F9" stroke-width="4" stroke-miterlimit="10" stroke-linecap="round" stroke-linejoin="round"/>
    <path d="M32.667 27.833v2.48a2.64 2.64 0 0 1-1.306 2.294l-2.027 1.226" stroke="#D853F9" stroke-width="4" stroke-miterlimit="10" stroke-linecap="round" stroke-linejoin="round"/>
</svg>
