<svg width="57" height="59" viewBox="0 0 57 59" fill="none" xmlns="http://www.w3.org/2000/svg">
    <rect y=".251" width="57" height="58" rx="8" fill="#FD8E8E"/>
    <path d="M37.513 22.877h-4.469c-.04.003-.08.004-.122.004v-.004h-3.43v5.604h9.555v-3.844c0-.97-.688-1.76-1.534-1.76zM21.238 19.376c0 1.253.955 2.319 2.114 2.394h5.035c-.564-1.537-2.067-4.693-4.91-4.718-1.232 0-2.239 1.043-2.239 2.324zM29.746 21.77h5.037c1.159-.075 2.114-1.14 2.114-2.394 0-1.281-1.007-2.324-2.244-2.324-2.849.025-4.346 3.18-4.907 4.718zM28.37 22.877H24.7v.004c-.041 0-.082-.001-.122-.004h-4.23c-.845 0-1.534.79-1.534 1.76v3.844h9.556v-5.604zM39.096 39.293v-9.705h-9.604v11.464h7.82c.983 0 1.784-.79 1.784-1.76zM28.37 29.588h-9.604v9.705c0 .97.8 1.76 1.784 1.76h7.82V29.587z" fill="#fff"/>
</svg>
