<svg width="57" height="59" viewBox="0 0 57 59" fill="none" xmlns="http://www.w3.org/2000/svg">
    <rect y=".251" width="57" height="58" rx="8" fill="#8EBAFD"/>
    <path d="M30.19 23h-6.4c-.26 0-.51.01-.75.04-2.69.23-4.04 1.82-4.04 4.75v4c0 4 1.6 4.79 4.79 4.79h.4c.22 0 .51.15.64.32l1.2 1.6c.53.71 1.39.71 1.92 0l1.2-1.6c.15-.2.39-.32.64-.32h.4c2.93 0 4.52-1.34 4.75-4.04.03-.24.04-.49.04-.75v-4c0-3.19-1.6-4.79-4.79-4.79zm-6.69 8c-.56 0-1-.45-1-1s.45-1 1-1 1 .45 1 1-.45 1-1 1zm3.49 0c-.56 0-1-.45-1-1s.45-1 1-1 1 .45 1 1-.44 1-1 1zm3.5 0c-.56 0-1-.45-1-1s.45-1 1-1 1 .45 1 1-.45 1-1 1z" fill="#fff"/>
    <path d="M38.98 23.79v4c0 2-.62 3.36-1.86 4.11-.3.18-.65-.06-.65-.41l.01-3.7c0-4-2.29-6.29-6.29-6.29l-6.09.01c-.35 0-.59-.35-.41-.65.75-1.24 2.11-1.86 4.1-1.86h6.4c3.19 0 4.79 1.6 4.79 4.79z" fill="#fff"/>
</svg>
