<svg width="32" height="33" viewBox="0 0 32 33" fill="none" xmlns="http://www.w3.org/2000/svg">
    <path d="M16 19.395c-1.5 0-2.8-1.2-2.8-2.8 0-1.5 1.2-2.8 2.8-2.8 1.5 0 2.8 1.2 2.8 2.8 0 1.5-1.3 2.8-2.8 2.8z" fill="#D9D9D9"/>
    <path fill-rule="evenodd" clip-rule="evenodd" d="M19.4 9.795h-6.8c-.8.1-1.2.2-1.5.3-.4.1-.7.3-1 .6-.237.237-.35.474-.485.761-.036.076-.073.155-.115.239a5.48 5.48 0 0 1-.052.147c-.105.286-.248.676-.248 1.353v6.8c.1.8.2 1.2.3 1.5.1.4.3.7.6 1 .237.237.475.35.762.485.075.036.155.073.238.115.046.015.095.033.148.052a3.53 3.53 0 0 0 1.352.248h6.8c.8-.1 1.2-.2 1.5-.3.4-.1.7-.3 1-.6.237-.238.35-.475.485-.762.036-.076.073-.155.115-.238.015-.047.033-.096.052-.148.105-.286.248-.676.248-1.352v-6.8c-.1-.8-.2-1.2-.3-1.5-.1-.4-.3-.7-.6-1-.237-.238-.475-.35-.762-.485a11.315 11.315 0 0 1-.238-.115 5.097 5.097 0 0 1-.147-.053c-.286-.104-.677-.247-1.353-.247zm-3.4 2.5c-2.4 0-4.3 1.9-4.3 4.3s1.9 4.3 4.3 4.3 4.3-1.9 4.3-4.3-1.9-4.3-4.3-4.3zm5.4-.1a1 1 0 1 1-2 0 1 1 0 0 1 2 0z" fill="#D9D9D9"/>
    <path fill-rule="evenodd" clip-rule="evenodd" d="M0 16.595c0-8.837 7.163-16 16-16s16 7.163 16 16c0 8.836-7.163 16-16 16s-16-7.164-16-16zm12.6-8.3h6.8c.9.1 1.5.2 2 .4.6.3 1 .5 1.5 1s.8 1 1 1.5c.2.5.4 1.1.4 2v6.8c-.1.9-.2 1.5-.4 2-.3.6-.5 1-1 1.5s-1 .8-1.5 1c-.5.2-1.1.4-2 .4h-6.8c-.9-.1-1.5-.2-2-.4-.6-.3-1-.5-1.5-1s-.8-1-1-1.5c-.2-.5-.4-1.1-.4-2v-6.8c.1-.9.2-1.5.4-2 .3-.6.5-1 1-1.5s1-.8 1.5-1c.5-.2 1.1-.4 2-.4z" fill="#D9D9D9"/>
</svg>
