<svg width="1440" height="1024" fill="none" xmlns="http://www.w3.org/2000/svg"><mask id="a" style="mask-type:alpha" maskUnits="userSpaceOnUse" x="0" y="0" width="1440" height="1024"><path fill="#C4C4C4" d="M0 0h1440v1024H0z"/></mask><g filter="url(#n70vu98qvb)" mask="url(#a)"><ellipse cx="417.668" cy="455.422" rx="417.668" ry="455.422" transform="matrix(.9771 -.21277 -.31312 -.94971 143.207 963.948)" fill="#D853F9"/><ellipse cx="418.162" cy="455.878" rx="418.162" ry="455.878" transform="matrix(.9771 -.21277 -.31312 -.94971 -178.219 1033.22)" fill="#D853F9"/><ellipse cx="589.183" cy="643.7" rx="589.183" ry="643.7" transform="matrix(.9771 -.21277 -.31312 -.94971 1079.38 1374.67)" fill="#C1BCFF"/><ellipse cx="589.183" cy="643.7" rx="589.183" ry="643.7" transform="matrix(.9771 -.21277 -.31312 -.94971 -278.887 1519.17)" fill="#C1BCFF"/><ellipse cx="458.693" cy="500.554" rx="458.693" ry="500.554" transform="matrix(.9771 -.21277 -.31312 -.94971 335.82 1220.12)" fill="#DEB5FF"/><ellipse cx="508.615" cy="554.804" rx="508.615" ry="554.804" transform="matrix(.9771 -.21277 -.31312 -.94971 1522.75 1171.39)" fill="#AAEBFF"/><ellipse cx="151.744" cy="111.69" rx="151.744" ry="111.69" transform="matrix(.9771 -.21277 -.31312 -.94971 -61.621 859.333)" fill="#FFDA58"/><ellipse opacity=".45" cx="459.187" cy="500.554" rx="459.187" ry="500.554" transform="matrix(.9771 -.21277 -.31312 -.94971 1016.55 1061.67)" fill="#FFD9DD"/><ellipse cx="151.744" cy="111.234" rx="151.744" ry="111.234" transform="matrix(.9771 -.21277 -.31312 -.94971 155.66 344.936)" fill="#FFDD65"/></g><defs><filter id="n70vu98qvb" x="-798.466" y="-285.331" width="3454.65" height="1975.58" filterUnits="userSpaceOnUse" color-interpolation-filters="sRGB"><feFlood flood-opacity="0" result="BackgroundImageFix"/><feBlend in="SourceGraphic" in2="BackgroundImageFix" result="shape"/><feGaussianBlur stdDeviation="141.795" result="effect1_foregroundBlur_55_28268"/></filter></defs></svg>